<?xml version="1.0" encoding="UTF-8" standalone="no"?>
<!-- Created with Inkscape (http://www.inkscape.org/) -->

<svg
   width="256"
   height="256"
   viewBox="0 0 67.733331 67.733331"
   version="1.1"
   id="svg1"
   xml:space="preserve"
   sodipodi:docname="logo2.svg"
   inkscape:version="1.3 (0e150ed6c4, 2023-07-21)"
   inkscape:export-filename="logo.png"
   inkscape:export-xdpi="96"
   inkscape:export-ydpi="96"
   xmlns:inkscape="http://www.inkscape.org/namespaces/inkscape"
   xmlns:sodipodi="http://sodipodi.sourceforge.net/DTD/sodipodi-0.dtd"
   xmlns="http://www.w3.org/2000/svg"
   xmlns:svg="http://www.w3.org/2000/svg"><sodipodi:namedview
     id="namedview1"
     pagecolor="#ffffff"
     bordercolor="#000000"
     borderopacity="0.25"
     inkscape:showpageshadow="2"
     inkscape:pageopacity="0.0"
     inkscape:pagecheckerboard="0"
     inkscape:deskcolor="#d1d1d1"
     inkscape:zoom="2.8284271"
     inkscape:cx="66.821591"
     inkscape:cy="124.27402"
     inkscape:window-width="1920"
     inkscape:window-height="1017"
     inkscape:window-x="-8"
     inkscape:window-y="-8"
     inkscape:window-maximized="1"
     inkscape:current-layer="layer1"
     inkscape:export-bgcolor="#ffffff00" /><defs
     id="defs1"><clipPath
       clipPathUnits="userSpaceOnUse"
       id="clipPath37"><rect
         style="fill:none;fill-opacity:1;stroke:#000000;stroke-width:0.0654447;stroke-dasharray:none;stroke-opacity:1"
         id="rect38"
         width="167.53844"
         height="167.53844"
         x="7.6163311"
         y="4.3605394" /></clipPath></defs><g
     id="layer1"
     style="display:inline"><g
       id="g37"
       clip-path="url(#clipPath37)"
       transform="matrix(0.40221812,0,0,0.40221812,-2.8913898,1.0831533)"><path
         id="boxfill"
         style="display:inline;stroke:#000000;stroke-width:0.79375"
         d="m 50.046217,29.092287 -15.434815,5.612659 -17.49279,-5.144938 16.18317,-4.957849 z"
         sodipodi:nodetypes="ccccc"
         transform="matrix(2.5071719,0,0,2.5071719,7.1825571,-5.4190196)" /><path
         style="display:inline;fill:#000000;stroke-width:12.939"
         d="M 21.195302,66.300776 90.932209,46.290185 161.77409,65.719348 95.794949,89.75912 Z M 138.20977,69.470486 90.461787,55.614738 43.542596,70.198251 99.318678,82.37769 Z"
         id="path10"
         sodipodi:nodetypes="cccccccccc" /><path
         style="display:inline;fill:#624f45;stroke-width:12.2898"
         d="m 36.561889,92.673805 -23.736533,-8.920678 6.407118,-8.145317 6.40712,-8.145314 32.771851,-9.152711 32.771754,-9.152588 32.614561,8.944768 32.61444,8.944767 6.57063,8.353258 6.57063,8.353137 -23.73654,8.920678 -23.73654,8.920685 -8.04122,2.51769 -2.20602,-2.13671 -7.637,-8.129094 -8.401191,-8.059778 -4.605483,-0.07373 h -4.466729 l -8.540065,8.129216 -7.636885,8.129086 -2.379677,2.27558 -7.867565,-2.65657 z m 82.202341,-19.370087 19.44554,-5.820698 -19.65889,-5.515911 -19.658901,-5.516035 -8.430192,-2.440632 -10.653173,2.838822 -17.884251,5.682561 -17.88425,5.682562 19.510069,5.176958 19.510069,5.176835 8.119261,0.571476 8.139166,-0.01229 z"
         id="path2" /><path
         d="M 126.67813,62.024761 H 86.111933 l 5.793661,22.243444 c 1.211775,4.650219 2.327812,7.647087 3.350077,8.990613 1.021284,1.343404 2.489669,2.015034 4.403078,2.015034 2.378431,0 3.736461,-0.891011 4.073571,-2.673894 0.33797,-1.782514 -0.15977,-5.231402 -1.49272,-10.346788 L 98.706774,68.689893 h 29.707656 l 1.97829,7.595469 c 1.65532,6.355305 2.52629,11.237923 2.61306,14.648344 0.086,3.410047 -0.8394,7.05288 -2.77688,10.928104 -1.9381,3.87522 -4.91678,6.78164 -8.9369,8.71925 -4.01988,1.93749 -9.44239,2.90641 -16.26814,2.90641 -6.61856,0 -12.710737,-0.95614 -18.276176,-2.8677 -5.565438,-1.91168 -10.191076,-4.53384 -13.877281,-7.86658 -3.686081,-3.332752 -6.593604,-7.001018 -8.72269,-11.00553 -2.128841,-4.004512 -4.189104,-9.830125 -6.180912,-17.477089 L 50.154538,44.276682 c -2.3417,-8.990239 -2.97364,-16.08195 -1.895825,-21.275008 1.077816,-5.192689 4.02319,-9.171022 8.83588,-11.93537 4.81281,-2.7642214 10.813064,-4.1462101 18.000634,-4.1465781 8.790407,1.23e-4 16.476575,1.6664977 23.058505,4.9991231 6.581678,3.332628 11.739838,7.750567 15.474218,13.253206 3.73414,5.502761 6.90011,13.240176 9.49756,23.212618 z M 90.90545,45.284079 88.947315,37.766034 c -1.386291,-5.321855 -2.565621,-8.757839 -3.538113,-10.307953 -0.973353,-1.549868 -2.337889,-2.325108 -4.09607,-2.325108 -2.171732,0 -3.344549,0.658734 -3.518572,1.976447 -0.174515,1.317589 0.492821,4.869713 2.000166,10.65686 l 1.958135,7.518044 z"
         id="emplogo"
         style="display:inline;fill:#48639d;fill-opacity:1;stroke:#000000;stroke-width:2.63124221;stroke-dasharray:none;stroke-opacity:1" /><path
         id="outline"
         style="display:inline;fill:#000000;stroke-width:13.5865"
         d="M 135.15538,66.549606 99.481975,77.424966 84.734971,77.385461 44.374872,66.45175 20.962731,66.417061 7.5579503,84.77761 l 15.3533967,6.101396 0.1477,41.508974 68.248884,29.13963 68.062969,-28.39335 0.13993,-42.165856 15.9047,-5.994179 -13.64144,-19.254877 z"
         sodipodi:nodetypes="cccccccccccccc" /><g
         id="g8"
         transform="matrix(0.96289943,0,0,0.96289943,2.0333188,1.9543947)"><path
           style="display:inline;fill:#624f45;stroke-width:12.7635;stroke-dasharray:none"
           d="m 95.970815,95.583065 -0.05102,63.812925 64.213325,-25.987 -0.1443,-37.906945 -46.28897,17.810055 z"
           id="rightpanel" /><path
           style="display:inline;fill:#624f45;stroke-width:12.7633"
           d="M 89.216842,95.583065 71.481168,113.3121 25.054477,96.512121 v 36.448369 l 64.247586,26.77894 z"
           id="leftpanel"
           sodipodi:nodetypes="cccccc" /><path
           style="display:inline;fill:#624f45;stroke-width:12.7633"
           d="m 156.03723,66.423697 -20.21558,0.06382 5.59965,1.569763 -20.1958,6.048289 -19.75873,6.564847 -16.626525,-0.322392 -41.212501,-11.532477 6.549505,-2.084253 -21.218149,0.06382 -4.445457,1.239319 -13.303402,16.9178 57.467716,21.284127 19.272507,-19.246078 9.425211,0.07658 18.942575,19.034978 57.65913,-21.145651 -13.65307,-17.353029 z"
           id="frontflap"
           sodipodi:nodetypes="cccccccccccccccccc" /></g></g></g></svg>
