<?xml version="1.0" standalone="no"?>
<!DOCTYPE svg PUBLIC "-//W3C//DTD SVG 20010904//EN"
 "http://www.w3.org/TR/2001/REC-SVG-20010904/DTD/svg10.dtd">
<svg version="1.0" xmlns="http://www.w3.org/2000/svg"
 width="700.000000pt" height="700.000000pt" viewBox="0 0 700.000000 700.000000"
 preserveAspectRatio="xMidYMid meet">
<metadata>
Created by potrace 1.14, written by Peter Selinger 2001-2017
</metadata>
<g transform="translate(0.000000,700.000000) scale(0.100000,-0.100000)"
fill="#000000" stroke="none">
<path d="M2615 6643 c-125 -15 -245 -40 -332 -68 -482 -160 -688 -482 -643
-1004 19 -223 39 -318 170 -825 46 -177 59 -241 50 -246 -7 -4 -292 -87 -634
-185 -341 -97 -630 -183 -642 -190 -11 -8 -143 -181 -293 -387 -234 -319 -270
-374 -254 -380 10 -5 153 -62 318 -127 l300 -118 3 -864 3 -864 1407 -600
c774 -330 1418 -600 1432 -600 14 1 653 263 1421 584 l1396 583 6 255 c4 141
7 536 7 878 l0 622 325 123 c179 68 325 128 324 134 0 6 -125 187 -277 401
l-277 390 -727 200 c-400 110 -732 205 -737 210 -5 6 -35 109 -66 230 -130
499 -256 816 -427 1075 -91 139 -298 344 -448 443 -274 181 -579 289 -922 326
-90 10 -413 13 -483 4z m470 -113 c329 -37 608 -134 855 -297 369 -245 578
-562 765 -1162 22 -71 185 -685 185 -697 0 -2 -378 -4 -840 -4 -666 0 -840 -3
-839 -12 0 -7 40 -164 88 -348 l88 -335 -73 -3 c-67 -3 -117 9 -631 149 -307
83 -558 152 -559 152 -8 16 -319 1241 -333 1312 -61 308 -62 542 -3 720 91
277 370 465 770 520 118 16 404 19 527 5z m2885 -2370 c124 -34 229 -65 234
-70 38 -37 533 -676 527 -682 -8 -9 -2271 -838 -2287 -838 -6 0 -179 171 -384
380 l-373 380 -191 0 -191 0 -385 -385 -386 -386 -1142 423 c-628 233 -1142
426 -1142 430 0 16 515 661 534 669 24 11 1091 309 1104 309 5 0 21 -45 35
-100 l25 -100 -212 -69 c-116 -38 -204 -71 -196 -74 8 -4 380 -108 825 -233
l810 -226 335 -7 335 -7 381 127 c209 69 567 182 795 249 228 68 418 127 422
130 4 4 -36 19 -90 34 -54 14 -183 51 -288 81 l-190 54 83 0 c45 1 82 4 82 9
0 4 -9 41 -20 82 -11 41 -20 78 -20 81 0 5 137 -32 970 -261z m-1152 -185
c-12 -13 -862 -265 -868 -258 -6 7 -70 241 -70 257 0 3 212 6 472 6 259 0 469
-2 466 -5z m1365 -2506 c-8 -7 -2505 -1018 -2535 -1027 -17 -4 -18 61 -18
1264 l0 1269 354 -354 354 -354 923 355 924 356 3 -751 c1 -413 -1 -754 -5
-758z m-2827 -1046 c-1 -1 -578 238 -1281 531 l-1280 533 -3 726 -2 726 37
-13 c21 -8 437 -158 925 -335 488 -176 890 -321 895 -321 4 0 163 155 353 345
l345 345 6 -1267 c4 -698 6 -1269 5 -1270z"/>
<path d="M3000 5893 c-93 -34 -120 -71 -120 -164 0 -81 23 -190 107 -516 l67
-263 248 0 c137 0 248 3 248 8 0 17 -131 505 -160 597 -65 202 -114 279 -205
321 -48 23 -145 32 -185 17z m147 -119 c65 -31 124 -175 213 -519 23 -88 44
-168 46 -177 5 -17 -6 -18 -130 -18 l-135 0 -11 38 c-74 267 -140 562 -140
628 0 37 4 46 23 54 35 14 96 11 134 -6z"/>
</g>
</svg>
