<?xml version="1.0" encoding="UTF-8" standalone="no"?>
<!-- Created with Inkscape (http://www.inkscape.org/) -->

<svg
   width="256"
   height="256"
   viewBox="0 0 67.733331 67.733331"
   version="1.1"
   id="svg1"
   xml:space="preserve"
   xmlns="http://www.w3.org/2000/svg"
   xmlns:svg="http://www.w3.org/2000/svg"><defs
     id="defs1"><clipPath
       clipPathUnits="userSpaceOnUse"
       id="clipPath37"><rect
         style="fill:none;fill-opacity:1;stroke:#000000;stroke-width:0.0654447;stroke-dasharray:none;stroke-opacity:1"
         id="rect38"
         width="167.53844"
         height="167.53844"
         x="7.6163311"
         y="4.3605394" /></clipPath></defs><g
     id="layer1"
     style="display:inline"><g
       id="g37"
       clip-path="url(#clipPath37)"
       transform="matrix(0.40428534,0,0,0.40428534,-3.079171,-1.7629022)"><rect
         style="display:inline;fill:#000000;fill-opacity:1;stroke:#000000;stroke-width:1.24383;stroke-dasharray:none;stroke-opacity:1"
         id="rect36"
         width="301.80817"
         height="242.93903"
         x="-66.248505"
         y="-21.491442" /><path
         style="display:inline;fill:#624f45;stroke-width:12.7633"
         d="M 54.600382,145.23409 25.051988,132.9573 V 115.23975 97.522326 l 23.216121,7.896294 23.21625,7.89642 8.865029,-8.86503 8.864901,-8.865031 v 31.160151 31.16027 l -2.532628,-0.19783 -2.532756,-0.19783 z m 41.36788,-18.12763 V 95.584979 l 8.865028,8.865031 8.86503,8.86503 23.21612,-7.89642 23.21612,-7.896294 v 17.944484 17.94448 l -26.17147,10.39203 -26.17147,10.39191 -5.90968,2.21635 -5.909678,2.21636 z M 35.858958,94.214835 11.207855,84.950442 l 6.653985,-8.459155 6.653986,-8.459155 34.034553,-9.505365 34.034451,-9.505238 33.87121,9.28941 33.87108,9.28941 6.82379,8.67511 6.82379,8.674983 -24.65111,9.264393 -24.6511,9.264395 -8.35105,2.6147 -2.29102,-2.21904 -7.93126,-8.442305 -8.724889,-8.370322 -4.782932,-0.07658 h -4.638833 l -8.869113,8.442435 -7.931136,8.442312 -2.471365,2.36325 -8.170703,-2.75892 z m 85.369602,-20.116418 20.19478,-6.04497 -20.41635,-5.72844 -20.41636,-5.728567 -8.755008,-2.53467 -11.06364,2.948202 -18.573332,5.90151 -18.573331,5.901511 20.261793,5.376427 20.261793,5.376299 8.432096,0.593495 8.452769,-0.01276 z"
         id="path8" /><path
         d="M 129.44738,67.896203 H 87.318168 l 6.016891,23.100485 c 1.258465,4.829391 2.417503,7.94173 3.479157,9.337022 1.060633,1.39516 2.585596,2.09267 4.572724,2.09267 2.47008,0 3.88043,-0.92534 4.23053,-2.776917 0.35099,-1.851194 -0.16592,-5.432968 -1.55023,-10.745451 l -3.66895,-14.08587 h 30.85229 l 2.05452,7.888123 c 1.71909,6.600175 2.62363,11.67092 2.71374,15.212745 0.0893,3.54144 -0.87174,7.32462 -2.88388,11.34916 -2.01277,4.02453 -5.10622,7.04293 -9.28124,9.0552 -4.17476,2.01214 -9.8062,3.0184 -16.89495,3.0184 -6.87357,0 -13.200479,-0.99299 -18.980355,-2.9782 -5.779876,-1.98533 -10.583739,-4.70852 -14.411974,-8.16968 -3.828106,-3.46116 -6.847656,-7.27076 -9.058776,-11.429564 C 62.2968,94.605521 60.157155,88.555446 58.088602,80.613844 L 49.975333,49.464289 c -2.431926,-9.336634 -3.088216,-16.701588 -1.968872,-22.094735 1.119345,-5.392764 4.178205,-9.524383 9.176327,-12.39524 4.998249,-2.870729 11.229692,-4.305966 18.6942,-4.306348 9.129102,1.27e-4 17.111419,1.730708 23.94695,5.191741 6.835272,3.461033 12.192172,8.049197 16.070442,13.763852 3.87801,5.714783 7.16597,13.750322 9.8635,24.107002 z M 92.296379,50.5105 90.262797,42.702785 c -1.439704,-5.526906 -2.664474,-9.095279 -3.674436,-10.705119 -1.010856,-1.609584 -2.427969,-2.414695 -4.253892,-2.414695 -2.255409,0 -3.473414,0.684115 -3.654143,2.0526 -0.181239,1.368357 0.51181,5.057343 2.077233,11.06747 l 2.033582,7.807714 z"
         id="path5"
         style="display:inline;fill:#48639d;fill-opacity:1;stroke:#000000;stroke-width:2.94971;stroke-dasharray:none;stroke-opacity:1" /><rect
         style="display:inline;fill:#000000;stroke-width:3.37696"
         id="rect9"
         width="202.21628"
         height="84.477837"
         x="-7.3844981"
         y="82.947594" /><path
         id="path9"
         style="display:inline;fill:#624f45;stroke-width:12.7633"
         d="m 156.03723,66.423697 -20.21558,0.06382 5.59965,1.569763 -20.1958,6.048289 -20.1893,6.048161 -8.455582,0.01276 -8.429288,-0.593495 -20.261793,-5.382043 -20.261793,-5.375405 6.549505,-2.084253 -21.218149,0.06382 -4.445457,1.239319 -6.655006,8.455582 -6.648396,8.462218 24.647951,9.266946 24.654422,9.260181 8.165343,2.757 2.473406,-2.36785 7.934582,-8.435793 8.864519,-8.442435 h 4.6433 l 4.781911,0.07658 8.726035,8.369811 7.92795,8.442427 2.28859,2.22274 8.35667,-2.61853 24.64791,-9.260174 24.65455,-9.266947 -6.82647,-8.673196 -6.8266,-8.679833 z M 89.216842,95.583065 80.352323,104.44758 71.481168,113.3121 25.054477,97.522198 v 35.438292 l 64.094536,25.75861 z m 6.753973,0 V 158.63074 L 160.13312,133.40899 V 97.522198 L 113.69985,113.3121 Z" /></g></g></svg>
